<svg xmlns="http://www.w3.org/2000/svg" viewBox="0 0 451 76"><title>Asset 1</title><g id="Layer_2" data-name="Layer 2"><g id="Layer_1-2" data-name="Layer 1"><rect x="410" y="22" width="10" height="10"/><rect x="421" y="31" width="10" height="10"/><rect x="441" y="31" width="10" height="10"/><rect x="432" y="49" width="10" height="10"/><rect x="421" y="49" width="10" height="10"/><rect x="441" y="42" width="10" height="10"/><rect x="431" y="22" width="10" height="10"/><rect x="410" y="33" width="10" height="10"/><rect x="410" y="44" width="10" height="10"/><rect x="410" y="55" width="10" height="10"/><rect x="410" y="66" width="10" height="10"/><rect x="349" y="22" width="10" height="10"/><rect x="360" y="31" width="10" height="10"/><rect x="380" y="31" width="10" height="10"/><rect x="371" y="49" width="10" height="10"/><rect x="360" y="49" width="10" height="10"/><rect x="380" y="42" width="10" height="10"/><rect x="370" y="22" width="10" height="10"/><rect x="349" y="33" width="10" height="10"/><rect x="349" y="44" width="10" height="10"/><rect x="349" y="55" width="10" height="10"/><rect x="349" y="66" width="10" height="10"/><rect y="22" width="10" height="10"/><rect x="158" y="33" width="10" height="10"/><rect x="158" y="11" width="10" height="10"/><rect x="174" y="28" width="10" height="10"/><rect x="185" y="55" width="10" height="10"/><rect x="174" y="55" width="10" height="10"/><rect x="195" y="48" width="10" height="10"/><rect x="195" y="37" width="10" height="10"/><rect x="184" y="37" width="10" height="10"/><rect x="184" y="18" width="10" height="10"/><rect x="233" y="11" width="10" height="10"/><rect x="233" y="55" width="10" height="10"/><rect x="233" y="44" width="10" height="10"/><rect x="233" y="33" width="10" height="10"/><rect x="244" y="55" width="10" height="10"/><rect x="255" y="55" width="10" height="10"/><rect x="266" y="55" width="10" height="10"/><rect x="250" y="25" width="10" height="10"/><rect x="261" y="25" width="10" height="10"/><rect x="296" y="45" width="10" height="10"/><rect x="307" y="45" width="10" height="10"/><rect x="318" y="45" width="10" height="10"/><rect x="318" y="34" width="10" height="10"/><rect x="318" y="23" width="10" height="10"/><rect x="286" y="66" width="10" height="10"/><rect x="318" y="56" width="10" height="10"/><rect x="308" y="66" width="10" height="10"/><rect x="297" y="66" width="10" height="10"/><rect x="286" y="34" width="10" height="10"/><rect x="286" y="23" width="10" height="10"/><rect x="272" y="33" width="10" height="10"/><rect x="272" y="44" width="10" height="10"/><rect x="244" y="36" width="10" height="10"/><rect x="233" y="22" width="10" height="10"/><rect x="233" width="10" height="10"/><rect x="195" y="18" width="10" height="10"/><rect x="158" width="10" height="10"/><rect x="158" y="22" width="10" height="10"/><rect x="158" y="44" width="10" height="10"/><rect x="158" y="55" width="10" height="10"/><rect x="395" y="33" width="10" height="10"/><rect x="395" y="8" width="10" height="10"/><rect x="395" y="22" width="10" height="10"/><rect x="395" y="44" width="10" height="10"/><rect x="395" y="55" width="10" height="10"/><rect x="46" y="33" width="10" height="10"/><rect x="46" y="8" width="10" height="10"/><rect x="98" y="55" width="10" height="10"/><rect x="132" y="22" width="10" height="10"/><rect x="143" y="33" width="10" height="10"/><rect x="143" y="22" width="10" height="10"/><rect x="121" y="22" width="10" height="10"/><rect x="122" y="37" width="10" height="10"/><rect x="133" y="37" width="10" height="10"/><rect x="111" y="33" width="10" height="10"/><rect x="115" y="55" width="10" height="10"/><rect x="126" y="55" width="10" height="10"/><rect x="137" y="55" width="10" height="10"/><rect x="111" y="44" width="10" height="10"/><rect x="98" y="18" width="10" height="10"/><rect x="60" y="55" width="10" height="10"/><rect x="60" y="18" width="10" height="10"/><rect x="88" y="28" width="10" height="10"/><rect x="70" y="28" width="10" height="10"/><rect x="79" y="37" width="10" height="10"/><rect x="70" y="45" width="10" height="10"/><rect x="88" y="45" width="10" height="10"/><rect x="46" y="22" width="10" height="10"/><rect x="46" y="44" width="10" height="10"/><rect x="46" y="55" width="10" height="10"/><rect x="11" y="31" width="10" height="10"/><rect x="31" y="31" width="10" height="10"/><rect x="22" y="49" width="10" height="10"/><rect x="11" y="49" width="10" height="10"/><rect x="31" y="42" width="10" height="10"/><rect x="21" y="22" width="10" height="10"/><rect y="33" width="10" height="10"/><rect y="44" width="10" height="10"/><rect y="55" width="10" height="10"/><rect y="66" width="10" height="10"/></g></g></svg>